<mxfile host="app.diagrams.net" modified="2023-12-12T09:06:17.010Z" agent="Mozilla/5.0 (Windows NT 10.0; Win64; x64) AppleWebKit/537.36 (KHTML, like Gecko) Chrome/119.0.0.0 Safari/537.36" etag="V_8UzGbxPTSsIG2611xE" version="22.1.7" type="device">
  <diagram name="Page-1" id="pub1l7ad4_DdruCasPtF">
    <mxGraphModel dx="794" dy="503" grid="1" gridSize="10" guides="1" tooltips="1" connect="1" arrows="1" fold="1" page="1" pageScale="1" pageWidth="850" pageHeight="1100" math="0" shadow="0">
      <root>
        <mxCell id="0" />
        <mxCell id="1" parent="0" />
        <mxCell id="12tAVDHy_seTnwjO3RKA-11" style="edgeStyle=orthogonalEdgeStyle;rounded=0;orthogonalLoop=1;jettySize=auto;html=1;" edge="1" parent="1" source="12tAVDHy_seTnwjO3RKA-1" target="12tAVDHy_seTnwjO3RKA-12">
          <mxGeometry relative="1" as="geometry">
            <mxPoint x="420" y="85" as="targetPoint" />
          </mxGeometry>
        </mxCell>
        <mxCell id="12tAVDHy_seTnwjO3RKA-1" value="" style="rounded=0;whiteSpace=wrap;html=1;" vertex="1" parent="1">
          <mxGeometry x="90" y="40" width="210" height="110" as="geometry" />
        </mxCell>
        <mxCell id="12tAVDHy_seTnwjO3RKA-2" value="EPOHHN" style="text;html=1;strokeColor=none;fillColor=none;align=center;verticalAlign=middle;whiteSpace=wrap;rounded=0;" vertex="1" parent="1">
          <mxGeometry x="159" y="10" width="60" height="30" as="geometry" />
        </mxCell>
        <mxCell id="12tAVDHy_seTnwjO3RKA-3" value="" style="whiteSpace=wrap;html=1;aspect=fixed;" vertex="1" parent="1">
          <mxGeometry x="106" y="70" width="70" height="70" as="geometry" />
        </mxCell>
        <mxCell id="12tAVDHy_seTnwjO3RKA-4" value="" style="whiteSpace=wrap;html=1;aspect=fixed;" vertex="1" parent="1">
          <mxGeometry x="206" y="70" width="70" height="70" as="geometry" />
        </mxCell>
        <mxCell id="12tAVDHy_seTnwjO3RKA-5" value="Frontend" style="text;html=1;strokeColor=none;fillColor=none;align=center;verticalAlign=middle;whiteSpace=wrap;rounded=0;" vertex="1" parent="1">
          <mxGeometry x="111" y="90" width="60" height="30" as="geometry" />
        </mxCell>
        <mxCell id="12tAVDHy_seTnwjO3RKA-6" value="Backend" style="text;html=1;strokeColor=none;fillColor=none;align=center;verticalAlign=middle;whiteSpace=wrap;rounded=0;" vertex="1" parent="1">
          <mxGeometry x="211" y="91" width="60" height="30" as="geometry" />
        </mxCell>
        <mxCell id="12tAVDHy_seTnwjO3RKA-7" value="Both are hosted" style="text;html=1;strokeColor=none;fillColor=none;align=center;verticalAlign=middle;whiteSpace=wrap;rounded=0;" vertex="1" parent="1">
          <mxGeometry x="127.5" y="40" width="115" height="30" as="geometry" />
        </mxCell>
        <mxCell id="12tAVDHy_seTnwjO3RKA-8" value="" style="rounded=0;whiteSpace=wrap;html=1;" vertex="1" parent="1">
          <mxGeometry x="570" y="200" width="210" height="120" as="geometry" />
        </mxCell>
        <mxCell id="12tAVDHy_seTnwjO3RKA-9" value="Some Remote Client" style="text;html=1;strokeColor=none;fillColor=none;align=center;verticalAlign=middle;whiteSpace=wrap;rounded=0;" vertex="1" parent="1">
          <mxGeometry x="615" y="320" width="120" height="30" as="geometry" />
        </mxCell>
        <mxCell id="12tAVDHy_seTnwjO3RKA-30" style="edgeStyle=orthogonalEdgeStyle;rounded=0;orthogonalLoop=1;jettySize=auto;html=1;exitX=1;exitY=0.5;exitDx=0;exitDy=0;exitPerimeter=0;entryX=0.5;entryY=0;entryDx=0;entryDy=0;" edge="1" parent="1" source="12tAVDHy_seTnwjO3RKA-12" target="12tAVDHy_seTnwjO3RKA-8">
          <mxGeometry relative="1" as="geometry" />
        </mxCell>
        <mxCell id="12tAVDHy_seTnwjO3RKA-12" value="" style="shape=cylinder3;whiteSpace=wrap;html=1;boundedLbl=1;backgroundOutline=1;size=15;" vertex="1" parent="1">
          <mxGeometry x="390" y="55" width="60" height="80" as="geometry" />
        </mxCell>
        <mxCell id="12tAVDHy_seTnwjO3RKA-13" value="SDK&lt;br&gt;(Script)" style="text;html=1;strokeColor=none;fillColor=none;align=center;verticalAlign=middle;whiteSpace=wrap;rounded=0;" vertex="1" parent="1">
          <mxGeometry x="390" y="90" width="60" height="30" as="geometry" />
        </mxCell>
        <mxCell id="12tAVDHy_seTnwjO3RKA-15" value="By embedding our script in website&amp;nbsp; client can use EPOHHN" style="text;html=1;strokeColor=none;fillColor=none;align=center;verticalAlign=middle;whiteSpace=wrap;rounded=0;" vertex="1" parent="1">
          <mxGeometry x="620" y="245" width="100" height="30" as="geometry" />
        </mxCell>
        <mxCell id="12tAVDHy_seTnwjO3RKA-16" value="Secured by KEY" style="text;html=1;strokeColor=none;fillColor=none;align=center;verticalAlign=middle;whiteSpace=wrap;rounded=0;" vertex="1" parent="1">
          <mxGeometry x="481" y="66" width="100" height="30" as="geometry" />
        </mxCell>
        <mxCell id="12tAVDHy_seTnwjO3RKA-19" value="" style="shape=or;whiteSpace=wrap;html=1;" vertex="1" parent="1">
          <mxGeometry x="390" y="239" width="60" height="70" as="geometry" />
        </mxCell>
        <mxCell id="12tAVDHy_seTnwjO3RKA-20" value="KEY" style="text;html=1;strokeColor=none;fillColor=none;align=center;verticalAlign=middle;whiteSpace=wrap;rounded=0;" vertex="1" parent="1">
          <mxGeometry x="390" y="259" width="60" height="30" as="geometry" />
        </mxCell>
        <mxCell id="12tAVDHy_seTnwjO3RKA-22" style="edgeStyle=orthogonalEdgeStyle;rounded=0;orthogonalLoop=1;jettySize=auto;html=1;entryX=0.841;entryY=1.048;entryDx=0;entryDy=0;entryPerimeter=0;" edge="1" parent="1" source="12tAVDHy_seTnwjO3RKA-20" target="12tAVDHy_seTnwjO3RKA-1">
          <mxGeometry relative="1" as="geometry" />
        </mxCell>
        <mxCell id="12tAVDHy_seTnwjO3RKA-23" style="edgeStyle=orthogonalEdgeStyle;rounded=0;orthogonalLoop=1;jettySize=auto;html=1;entryX=0.013;entryY=0.614;entryDx=0;entryDy=0;entryPerimeter=0;" edge="1" parent="1" source="12tAVDHy_seTnwjO3RKA-19" target="12tAVDHy_seTnwjO3RKA-8">
          <mxGeometry relative="1" as="geometry" />
        </mxCell>
      </root>
    </mxGraphModel>
  </diagram>
</mxfile>
